# xmcd
#
# Track frame offsets:
#	183
#	12610
#	33690
#	44863
#	55665
#	70168
#	81885
#	94000
#	104063
#	113590
#	126680
#	140370
#	153063
#	168868
#	179943
#	191470
#	205975
#	217555
#	233275
#	244348
#	255558
#	272448
#	284083
#	297935
#	309270
#	321778
#
# Disc length: 4354 seconds
#
# Revision: 1
# Processed by: cddbd v1.5.2PL0 Copyright (c) Steve Scherf et al.
# Submitted via: EZCDAudioConverter 8.5.0.1
#
DISCID=8011001a
DTITLE=Jim Croce - The Complete Collection
DYEAR=2001
DGENRE=Pop/Country
TTITLE0=Jim and Ingrid Croce - Hey Tomorrow - (1971)
TTITLE1=Jim Croce - Chain Gang Medley - (1974)
TTITLE2=Jim Croce - Old Man River - (1975)
TTITLE3=Jim Croce - Careful Man - (1972)
TTITLE4=Jim Croce - These Dreams - (1972)
TTITLE5=Jim Croce - It Doesn't Have To Be That Way - (1973)
TTITLE6=Jim Croce - Dreamin' Again - (1972)
TTITLE7=Jim Croce - Alabama Rain - (1973)
TTITLE8=Jim Croce - A Good Time Man Like Me Ain't Got No Business - (1973)
TTITLE9=Jim Croce - Next Time, This Time - (1972)
TTITLE10=Jim Croce - Bad, Bad Leroy Brown - (1972)
TTITLE11=Jim Croce - One Less Set Of Footsteps - (1973)
TTITLE12=Jim Croce - Roller Derby Queen - (1973)
TTITLE13=Jim Croce - Speedball Tucker - (1972)
TTITLE14=Jim Croce - I'll Have To Say I Love You In A Song - (1973)
TTITLE15=Jim Croce - I Got A Name - (1973)
TTITLE16=Jim Croce - Recently - (1973)
TTITLE17=Jim Croce - Five Short Minutes - (1973)
TTITLE18=Jim Croce - Thursday - (1974)
TTITLE19=Jim Croce - The Hard Way Every Time - (1973)
TTITLE20=Jim Croce - Age - (1973)
TTITLE21=Jim Croce - Workin' At The Car Wash Blues - (1974)
TTITLE22=Jim Croce - Lover's Cross - (1973)
TTITLE23=Jim Croce - Salon And Saloon - (1973)
TTITLE24=Jim Croce - Top Hat Bar And Grill - (1973)
TTITLE25=Jim Croce - Narrative by Jim Croce - (1973)
EXTD=
EXTT0=
EXTT1=
EXTT2=
EXTT3=
EXTT4=
EXTT5=
EXTT6=
EXTT7=
EXTT8=
EXTT9=
EXTT10=
EXTT11=
EXTT12=
EXTT13=
EXTT14=
EXTT15=
EXTT16=
EXTT17=
EXTT18=
EXTT19=
EXTT20=
EXTT21=
EXTT22=
EXTT23=
EXTT24=
EXTT25=
PLAYORDER=
